<svg width="256" height="256" viewBox="0 0 256 256" fill="none" xmlns="http://www.w3.org/2000/svg">
  <defs>
    <linearGradient id="bc_grad" x1="52" y1="44" x2="204" y2="212" gradientUnits="userSpaceOnUse">
      <stop offset="0" stop-color="#3b82f6"/>
      <stop offset="1" stop-color="#8b5cf6"/>
    </linearGradient>
    <linearGradient id="bc_grad_soft" x1="64" y1="56" x2="192" y2="200" gradientUnits="userSpaceOnUse">
      <stop offset="0" stop-color="#6ea8ff"/>
      <stop offset="1" stop-color="#b190ff"/>
    </linearGradient>
    <filter id="bc_glow" x="20" y="20" width="216" height="216" filterUnits="userSpaceOnUse" color-interpolation-filters="sRGB">
      <feGaussianBlur stdDeviation="8" result="blur"/>
      <feMerge>
        <feMergeNode in="blur"/>
        <feMergeNode in="SourceGraphic"/>
      </feMerge>
    </filter>
  </defs>

  <rect x="16" y="16" width="224" height="224" rx="56" fill="#0A1022"/>
  <rect x="16" y="16" width="224" height="224" rx="56" stroke="rgba(142,176,255,0.3)"/>

  <g filter="url(#bc_glow)">
    <path d="M88 64H132C159.614 64 182 86.386 182 114C182 135.484 167.77 153.643 148 160L182 192H156.5L126 163H112V192H88V64Z" fill="none" stroke="url(#bc_grad)" stroke-width="16" stroke-linejoin="round"/>

    <path d="M112 88H132C145.255 88 156 98.7452 156 112C156 125.255 145.255 136 132 136H112V88Z" fill="url(#bc_grad_soft)"/>

    <path d="M64 72L84 84" stroke="url(#bc_grad)" stroke-width="8" stroke-linecap="round"/>
    <circle cx="56" cy="68" r="6" fill="url(#bc_grad_soft)"/>

    <path d="M54 124H80" stroke="url(#bc_grad)" stroke-width="8" stroke-linecap="round"/>
    <circle cx="46" cy="124" r="6" fill="url(#bc_grad_soft)"/>

    <path d="M64 176L84 164" stroke="url(#bc_grad)" stroke-width="8" stroke-linecap="round"/>
    <circle cx="56" cy="180" r="6" fill="url(#bc_grad_soft)"/>

    <path d="M186 104L206 94" stroke="url(#bc_grad)" stroke-width="8" stroke-linecap="round"/>
    <circle cx="214" cy="90" r="6" fill="url(#bc_grad_soft)"/>

    <path d="M184 154L204 168" stroke="url(#bc_grad)" stroke-width="8" stroke-linecap="round"/>
    <circle cx="212" cy="172" r="6" fill="url(#bc_grad_soft)"/>
  </g>
</svg>
